<svg width="20" height="24" viewBox="0 0 20 24" fill="none" xmlns="http://www.w3.org/2000/svg">
<path d="M2.85714 0.801636C2.65714 0.801636 2.48571 0.830386 2.31429 0.887886C1.2 1.11789 0.314286 2.00914 0.0857143 3.13039C0 3.30289 0 3.47539 0 3.67664V19.4891C0 21.8754 1.91429 23.8016 4.28571 23.8016H20V20.9266H4.28571C3.48571 20.9266 2.85714 20.2941 2.85714 19.4891C2.85714 18.6841 3.48571 18.0516 4.28571 18.0516H20V2.23914C20 1.43414 19.3714 0.801636 18.5714 0.801636H17.1429V9.42664L14.2857 6.55164L11.4286 9.42664V0.801636H2.85714Z" fill="#DFB400"/>
</svg>
