<svg width="27" height="25" viewBox="0 0 27 25" fill="none" xmlns="http://www.w3.org/2000/svg">
<g clip-path="url(#clip0_404_13801)">
<path d="M18.75 0.75H8.25C7.00781 0.75 5.99531 1.77188 6.04219 3.00938C6.05156 3.25781 6.06094 3.50625 6.075 3.75H1.125C0.501562 3.75 0 4.25156 0 4.875C0 9.21562 1.57031 12.2344 3.67969 14.2828C5.75625 16.3031 8.2875 17.3203 10.1531 17.8359C11.25 18.1406 12 19.0547 12 19.9734C12 20.9531 11.2031 21.75 10.2234 21.75H9C8.17031 21.75 7.5 22.4203 7.5 23.25C7.5 24.0797 8.17031 24.75 9 24.75H18C18.8297 24.75 19.5 24.0797 19.5 23.25C19.5 22.4203 18.8297 21.75 18 21.75H16.7766C15.7969 21.75 15 20.9531 15 19.9734C15 19.0547 15.7453 18.1359 16.8469 17.8359C18.7172 17.3203 21.2484 16.3031 23.325 14.2828C25.4297 12.2344 27 9.21562 27 4.875C27 4.25156 26.4984 3.75 25.875 3.75H20.925C20.9391 3.50625 20.9484 3.2625 20.9578 3.00938C21.0047 1.77188 19.9922 0.75 18.75 0.75ZM2.29219 6H6.24844C6.675 10.2234 7.61719 13.0453 8.68125 14.9344C7.51406 14.4188 6.3 13.6922 5.25 12.6703C3.75 11.2125 2.53125 9.10781 2.29688 6H2.29219ZM21.7547 12.6703C20.7047 13.6922 19.4906 14.4188 18.3234 14.9344C19.3875 13.0453 20.3297 10.2234 20.7562 6H24.7125C24.4734 9.10781 23.2547 11.2125 21.7594 12.6703H21.7547Z" fill="#028C3C"/>
</g>
<defs>
<clipPath id="clip0_404_13801">
<path d="M0 0.75H27V24.75H0V0.75Z" fill="white"/>
</clipPath>
</defs>
</svg>
