<svg width="31" height="24" viewBox="0 0 31 24" fill="none" xmlns="http://www.w3.org/2000/svg">
<g clip-path="url(#clip0_404_13814)">
<path d="M10.0781 16.5C15.4641 16.5 19.8281 12.8062 19.8281 8.25C19.8281 3.69375 15.4641 0 10.0781 0C4.69221 0 0.32815 3.69375 0.32815 8.25C0.32815 10.0594 1.01721 11.7328 2.1844 13.0969C2.02034 13.5375 1.77659 13.9266 1.51877 14.2547C1.29377 14.5453 1.06409 14.7703 0.895337 14.925C0.810962 15 0.74065 15.0609 0.693775 15.0984C0.670337 15.1172 0.651587 15.1312 0.642212 15.1359L0.632837 15.1453C0.375025 15.3375 0.262525 15.675 0.36565 15.9797C0.468775 16.2844 0.754712 16.5 1.07815 16.5C2.10002 16.5 3.13127 16.2375 3.98909 15.9141C4.42034 15.75 4.82346 15.5672 5.17502 15.3797C6.61409 16.0922 8.28752 16.5 10.0781 16.5ZM21.3281 8.25C21.3281 13.5141 16.6828 17.4797 11.1797 17.9531C12.3188 21.4406 16.0969 24 20.5781 24C22.3688 24 24.0422 23.5922 25.486 22.8797C25.8375 23.0672 26.236 23.25 26.6672 23.4141C27.525 23.7375 28.5563 24 29.5781 24C29.9016 24 30.1922 23.7891 30.2906 23.4797C30.3891 23.1703 30.2813 22.8328 30.0188 22.6406L30.0094 22.6312C30 22.6219 29.9813 22.6125 29.9578 22.5938C29.911 22.5562 29.8406 22.5 29.7563 22.4203C29.5875 22.2656 29.3578 22.0406 29.1328 21.75C28.875 21.4219 28.6313 21.0281 28.4672 20.5922C29.6344 19.2328 30.3235 17.5594 30.3235 15.7453C30.3235 11.3953 26.3438 7.82812 21.2953 7.51875C21.3141 7.75781 21.3235 8.00156 21.3235 8.24531L21.3281 8.25Z" fill="white"/>
</g>
<defs>
<clipPath id="clip0_404_13814">
<path d="M0.328125 0H30.3281V24H0.328125V0Z" fill="white"/>
</clipPath>
</defs>
</svg>
