<svg width="18" height="22" viewBox="0 0 18 22" fill="none" xmlns="http://www.w3.org/2000/svg">
<path fill-rule="evenodd" clip-rule="evenodd" d="M12.54 0.301636C12.3024 0.597886 12.1232 0.93655 12.012 1.29964H11.38C10.5844 1.29964 9.82129 1.61571 9.25868 2.17832C8.69607 2.74092 8.38 3.50399 8.38 4.29964C8.38 5.09529 8.69607 5.85835 9.25868 6.42096C9.82129 6.98356 10.5844 7.29964 11.38 7.29964H12.01C12.15 7.75564 12.4 8.18564 12.76 8.54564C13.0528 8.83811 13.403 9.06682 13.7885 9.21741C14.174 9.36799 14.5865 9.43719 15 9.42064V16.3016H17C17.2652 16.3016 17.5196 16.407 17.7071 16.5945C17.8946 16.7821 18 17.0364 18 17.3016C18 17.5669 17.8946 17.8212 17.7071 18.0087C17.5196 18.1963 17.2652 18.3016 17 18.3016H1C0.734784 18.3016 0.48043 18.1963 0.292893 18.0087C0.105357 17.8212 0 17.5669 0 17.3016C0 17.0364 0.105357 16.7821 0.292893 16.5945C0.48043 16.407 0.734784 16.3016 1 16.3016V2.30164C1 1.7712 1.21071 1.26249 1.58579 0.887422C1.96086 0.512349 2.46957 0.301636 3 0.301636H12.54ZM10.5 10.3016C10.1022 10.3016 9.72064 10.4597 9.43934 10.741C9.15804 11.0223 9 11.4038 9 11.8016C9 12.1995 9.15804 12.581 9.43934 12.8623C9.72064 13.1436 10.1022 13.3016 10.5 13.3016C10.8978 13.3016 11.2794 13.1436 11.5607 12.8623C11.842 12.581 12 12.1995 12 11.8016C12 11.4038 11.842 11.0223 11.5607 10.741C11.2794 10.4597 10.8978 10.3016 10.5 10.3016ZM15.587 1.47364L17.707 3.59364C17.8942 3.78112 17.9993 4.03522 17.9993 4.30014C17.9993 4.56505 17.8942 4.81915 17.707 5.00664L15.587 7.12964C15.4948 7.22521 15.3845 7.30147 15.2626 7.35396C15.1406 7.40645 15.0094 7.43413 14.8766 7.43538C14.7438 7.43662 14.6121 7.41142 14.4892 7.36122C14.3663 7.31103 14.2546 7.23685 14.1606 7.14303C14.0667 7.0492 13.9923 6.93761 13.942 6.81475C13.8916 6.69189 13.8662 6.56023 13.8673 6.42745C13.8683 6.29467 13.8958 6.16343 13.9481 6.04139C14.0005 5.91935 14.0766 5.80895 14.172 5.71664L14.588 5.29964H11.38C11.1148 5.29964 10.8604 5.19428 10.6729 5.00674C10.4854 4.81921 10.38 4.56485 10.38 4.29964C10.38 4.03442 10.4854 3.78007 10.6729 3.59253C10.8604 3.40499 11.1148 3.29964 11.38 3.29964H14.585L14.173 2.88764C13.9908 2.69903 13.89 2.44643 13.8923 2.18423C13.8946 1.92204 13.9998 1.67123 14.1852 1.48582C14.3706 1.30041 14.6214 1.19524 14.8836 1.19296C15.1458 1.19068 15.3984 1.29148 15.587 1.47364Z" fill="#494949"/>
</svg>
