<svg width="22" height="24" viewBox="0 0 22 24" fill="none" xmlns="http://www.w3.org/2000/svg">
<g clip-path="url(#clip0_404_13820)">
<path d="M3.15625 1.5C3.15625 0.670312 2.48594 0 1.65625 0C0.826562 0 0.15625 0.670312 0.15625 1.5V3V17.25V22.5C0.15625 23.3297 0.826562 24 1.65625 24C2.48594 24 3.15625 23.3297 3.15625 22.5V16.5L6.17031 15.7453C8.09688 15.2625 10.1359 15.4875 11.9125 16.3734C13.9844 17.4094 16.3891 17.5359 18.5547 16.7203L20.1813 16.1109C20.7672 15.8906 21.1562 15.3328 21.1562 14.7047V3.09844C21.1562 2.02031 20.0219 1.31719 19.0563 1.8L18.6063 2.025C16.4359 3.1125 13.8813 3.1125 11.7109 2.025C10.0656 1.2 8.17656 0.99375 6.39062 1.43906L3.15625 2.25V1.5Z" fill="white"/>
</g>
<defs>
<clipPath id="clip0_404_13820">
<path d="M0.15625 0H21.1562V24H0.15625V0Z" fill="white"/>
</clipPath>
</defs>
</svg>
