<svg width="24" height="25" viewBox="0 0 24 25" fill="none" xmlns="http://www.w3.org/2000/svg">
<path d="M3 22.8016H2.25C1.85218 22.8016 1.47064 22.6436 1.18934 22.3623C0.908035 22.081 0.75 21.6995 0.75 21.3016V5.55164C0.75 5.15381 0.908035 4.77228 1.18934 4.49098C1.47064 4.20967 1.85218 4.05164 2.25 4.05164H3C3.39782 4.05164 3.77936 4.20967 4.06066 4.49098C4.34196 4.77228 4.5 5.15381 4.5 5.55164V21.3016C4.5 21.6995 4.34196 22.081 4.06066 22.3623C3.77936 22.6436 3.39782 22.8016 3 22.8016ZM11.25 8.55164C11.25 8.15381 11.092 7.77228 10.8107 7.49098C10.5294 7.20967 10.1478 7.05164 9.75 7.05164H6.75C6.35218 7.05164 5.97064 7.20967 5.68934 7.49098C5.40804 7.77228 5.25 8.15381 5.25 8.55164V9.86414C5.25 9.91386 5.26975 9.96156 5.30492 9.99672C5.34008 10.0319 5.38777 10.0516 5.4375 10.0516H11.0625C11.1122 10.0516 11.1599 10.0319 11.1951 9.99672C11.2302 9.96156 11.25 9.91386 11.25 9.86414V8.55164ZM5.25 21.3016C5.25 21.6995 5.40804 22.081 5.68934 22.3623C5.97064 22.6436 6.35218 22.8016 6.75 22.8016H9.75C10.1478 22.8016 10.5294 22.6436 10.8107 22.3623C11.092 22.081 11.25 21.6995 11.25 21.3016V19.8954C11.25 19.8705 11.2401 19.8467 11.2225 19.8291C11.205 19.8115 11.1811 19.8016 11.1562 19.8016H5.34375C5.31889 19.8016 5.29504 19.8115 5.27746 19.8291C5.25988 19.8467 5.25 19.8705 5.25 19.8954V21.3016Z" fill="#494949"/>
<path d="M11.1562 11.5516H5.34375C5.29197 11.5516 5.25 11.5936 5.25 11.6454V18.2079C5.25 18.2597 5.29197 18.3016 5.34375 18.3016H11.1562C11.208 18.3016 11.25 18.2597 11.25 18.2079V11.6454C11.25 11.5936 11.208 11.5516 11.1562 11.5516Z" fill="#494949"/>
<path d="M15 22.8016H13.5C13.1022 22.8016 12.7206 22.6436 12.4393 22.3623C12.158 22.081 12 21.6995 12 21.3016V3.30164C12 2.90381 12.158 2.52228 12.4393 2.24098C12.7206 1.95967 13.1022 1.80164 13.5 1.80164H15C15.3978 1.80164 15.7794 1.95967 16.0607 2.24098C16.342 2.52228 16.5 2.90381 16.5 3.30164V21.3016C16.5 21.6995 16.342 22.081 16.0607 22.3623C15.7794 22.6436 15.3978 22.8016 15 22.8016ZM23.2448 21.1821L21.7341 5.2446C21.6647 4.51101 20.94 3.97898 20.1155 4.0582L18.6225 4.19882C17.798 4.2771 17.1858 4.93523 17.2552 5.66882L18.7659 21.6063C18.8353 22.3399 19.56 22.8719 20.3845 22.7927L21.8775 22.6521C22.702 22.5738 23.3142 21.9157 23.2448 21.1821Z" fill="#494949"/>
</svg>
