<svg width="24" height="25" viewBox="0 0 24 25" fill="none" xmlns="http://www.w3.org/2000/svg">
<path fill-rule="evenodd" clip-rule="evenodd" d="M20.314 8.33963C18.907 7.37463 16.942 6.37963 14.927 6.30363C14.121 6.27363 13.445 6.60863 12.76 6.94863C12.5687 7.04529 12.375 7.13863 12.179 7.22863C12.024 7.29763 11.976 7.29763 11.821 7.22863C11.6258 7.1392 11.4324 7.04584 11.241 6.94863C10.556 6.60863 9.879 6.27263 9.073 6.30363C7.058 6.37963 5.093 7.37463 3.686 8.33963C2.763 8.97163 1 9.98563 1 11.3016C1 12.7526 2.937 14.4176 3.914 15.2496C5.73 16.7976 8.451 18.3016 12 18.3016C15.549 18.3016 18.27 16.7976 20.086 15.2516C21.102 14.3846 23 12.8136 23 11.3016C23 10.0246 21.206 8.95163 20.314 8.33963ZM12 13.3016C15.153 13.3016 18.182 12.8116 21 11.9106C19.4891 11.5049 17.9314 11.3002 16.367 11.3016C14.855 11.3016 13.39 11.4896 12 11.8416C10.5723 11.4817 9.1054 11.3003 7.633 11.3016C6.024 11.3016 4.469 11.5146 3 11.9106C5.90992 12.8374 8.94608 13.3066 12 13.3016Z" fill="#494949"/>
</svg>
