<svg width="24" height="20" viewBox="0 0 24 20" fill="none" xmlns="http://www.w3.org/2000/svg">
<path fill-rule="evenodd" clip-rule="evenodd" d="M7.2002 1.90166C7.2002 1.5834 7.32662 1.27818 7.55167 1.05313C7.77671 0.828089 8.08194 0.70166 8.4002 0.70166H21.6002C22.2367 0.70166 22.8472 0.954516 23.2973 1.4046C23.7473 1.85469 24.0002 2.46514 24.0002 3.10166V13.9017C24.0002 14.5382 23.7473 15.1486 23.2973 15.5987C22.8472 16.0488 22.2367 16.3017 21.6002 16.3017H20.4002C20.0819 16.3017 19.7767 16.1752 19.5517 15.9502C19.3266 15.7251 19.2002 15.4199 19.2002 15.1017C19.2002 14.7834 19.3266 14.4782 19.5517 14.2531C19.7767 14.0281 20.0819 13.9017 20.4002 13.9017H21.6002V3.10166H8.4002C8.08194 3.10166 7.77671 2.97523 7.55167 2.75019C7.32662 2.52514 7.2002 2.21992 7.2002 1.90166Z" fill="#494949"/>
<path fill-rule="evenodd" clip-rule="evenodd" d="M2.4 4.30164C1.76348 4.30164 1.15303 4.55449 0.702944 5.00458C0.252856 5.45467 0 6.06512 0 6.70164V17.5016C0 18.1382 0.252856 18.7486 0.702944 19.1987C1.15303 19.6488 1.76348 19.9016 2.4 19.9016H15.6C16.2365 19.9016 16.847 19.6488 17.2971 19.1987C17.7471 18.7486 18 18.1382 18 17.5016V6.70164C18 6.06512 17.7471 5.45467 17.2971 5.00458C16.847 4.55449 16.2365 4.30164 15.6 4.30164H2.4ZM2.4 17.5016V10.9016H15.6V17.5016H2.4Z" fill="#494949"/>
</svg>
