<svg width="24" height="25" viewBox="0 0 24 25" fill="none" xmlns="http://www.w3.org/2000/svg">
<g clip-path="url(#clip0_54630_12686)">
<path d="M2.424 24.3016C1.733 24.3016 1.1565 24.0706 0.6945 23.6086C0.2325 23.1466 0.001 22.5696 0 21.8776V2.72564C0 2.03464 0.2315 1.45814 0.6945 0.996135C1.1575 0.534135 1.734 0.302636 2.424 0.301636H21.5775C22.2675 0.301636 22.844 0.533135 23.307 0.996135C23.77 1.45914 24.001 2.03564 24 2.72564V21.8791C24 22.5691 23.769 23.1456 23.307 23.6086C22.845 24.0716 22.268 24.3026 21.576 24.3016H2.424ZM4.5 19.0516H12V17.5516H4.5V19.0516ZM7.5 12.2446L12 9.99463L16.5 12.2446V1.80164H7.5V12.2446Z" fill="#494949"/>
</g>
<defs>
<clipPath id="clip0_54630_12686">
<rect width="24" height="24" fill="white" transform="translate(0 0.301636)"/>
</clipPath>
</defs>
</svg>
