<svg width="24" height="25" viewBox="0 0 24 25" fill="none" xmlns="http://www.w3.org/2000/svg">
<path d="M5 14.3016C6.10457 14.3016 7 13.4062 7 12.3016C7 11.1971 6.10457 10.3016 5 10.3016C3.89543 10.3016 3 11.1971 3 12.3016C3 13.4062 3.89543 14.3016 5 14.3016Z" fill="#494949" stroke="#494949" stroke-width="2"/>
<path d="M19 7.30164C20.1046 7.30164 21 6.40621 21 5.30164C21 4.19707 20.1046 3.30164 19 3.30164C17.8954 3.30164 17 4.19707 17 5.30164C17 6.40621 17.8954 7.30164 19 7.30164Z" fill="#494949" stroke="#494949" stroke-width="2"/>
<path d="M19 14.3016C20.1046 14.3016 21 13.4062 21 12.3016C21 11.1971 20.1046 10.3016 19 10.3016C17.8954 10.3016 17 11.1971 17 12.3016C17 13.4062 17.8954 14.3016 19 14.3016Z" fill="#494949" stroke="#494949" stroke-width="2"/>
<path d="M19 21.3016C20.1046 21.3016 21 20.4062 21 19.3016C21 18.1971 20.1046 17.3016 19 17.3016C17.8954 17.3016 17 18.1971 17 19.3016C17 20.4062 17.8954 21.3016 19 21.3016Z" fill="#494949" stroke="#494949" stroke-width="2"/>
<path d="M17 19.3016H11V5.30164H17M7 12.3016H17" stroke="#494949" stroke-width="2" stroke-linecap="round" stroke-linejoin="round"/>
</svg>
