<svg width="22" height="19" viewBox="0 0 22 19" fill="none" xmlns="http://www.w3.org/2000/svg">
<g clip-path="url(#clip0_404_13795)">
<path d="M11.7383 3.97656C12.1391 3.73047 12.4062 3.28398 12.4062 2.78125C12.4062 2.0043 11.777 1.375 11 1.375C10.223 1.375 9.59375 2.0043 9.59375 2.78125C9.59375 3.2875 9.86094 3.73047 10.2617 3.97656L8.24727 8.00547C7.92734 8.64531 7.09766 8.82812 6.53867 8.38164L3.40625 5.875C3.58203 5.63945 3.6875 5.34766 3.6875 5.03125C3.6875 4.2543 3.0582 3.625 2.28125 3.625C1.5043 3.625 0.875 4.2543 0.875 5.03125C0.875 5.8082 1.5043 6.4375 2.28125 6.4375C2.28828 6.4375 2.29883 6.4375 2.30586 6.4375L3.9125 15.2758C4.10586 16.3445 5.0375 17.125 6.12734 17.125H15.8727C16.959 17.125 17.8906 16.348 18.0875 15.2758L19.6941 6.4375C19.7012 6.4375 19.7117 6.4375 19.7188 6.4375C20.4957 6.4375 21.125 5.8082 21.125 5.03125C21.125 4.2543 20.4957 3.625 19.7188 3.625C18.9418 3.625 18.3125 4.2543 18.3125 5.03125C18.3125 5.34766 18.418 5.63945 18.5938 5.875L15.4613 8.38164C14.9023 8.82812 14.0727 8.64531 13.7527 8.00547L11.7383 3.97656Z" fill="white"/>
</g>
<defs>
<clipPath id="clip0_404_13795">
<path d="M0.875 0.25H21.125V18.25H0.875V0.25Z" fill="white"/>
</clipPath>
</defs>
</svg>
