<svg width="28" height="24" viewBox="0 0 28 24" fill="none" xmlns="http://www.w3.org/2000/svg">
<g clip-path="url(#clip0_404_13837)">
<path d="M15.3548 0.84375C15.1064 0.328125 14.5814 0 14.0048 0C13.4282 0 12.9079 0.328125 12.6548 0.84375L9.64073 7.04531L2.90948 8.03906C2.34698 8.12344 1.87823 8.51719 1.70479 9.05625C1.53136 9.59531 1.67198 10.1906 2.07511 10.5891L6.95948 15.4219L5.80636 22.2516C5.71261 22.8141 5.94698 23.3859 6.41104 23.7188C6.87511 24.0516 7.48917 24.0938 7.99542 23.8266L14.0095 20.6156L20.0235 23.8266C20.5298 24.0938 21.1439 24.0562 21.6079 23.7188C22.072 23.3813 22.3064 22.8141 22.2126 22.2516L21.0548 15.4219L25.9392 10.5891C26.3423 10.1906 26.4876 9.59531 26.3095 9.05625C26.1314 8.51719 25.6673 8.12344 25.1048 8.03906L18.3689 7.04531L15.3548 0.84375Z" fill="white"/>
</g>
<defs>
<clipPath id="clip0_404_13837">
<path d="M0.5 0H27.5V24H0.5V0Z" fill="white"/>
</clipPath>
</defs>
</svg>
