<svg width="18" height="17" viewBox="0 0 18 17" fill="none" xmlns="http://www.w3.org/2000/svg">
<path d="M17 11C17 9.89543 16.1046 9 15 9C13.8954 9 13 9.89543 13 11V14C13 15.1046 13.8954 16 15 16C16.1046 16 17 15.1046 17 14V11Z" fill="#494949" stroke="#494949" stroke-width="2" stroke-linejoin="round"/>
<path d="M5 11C5 9.89543 4.10457 9 3 9C1.89543 9 1 9.89543 1 11V14C1 15.1046 1.89543 16 3 16C4.10457 16 5 15.1046 5 14V11Z" fill="#494949" stroke="#494949" stroke-width="2" stroke-linejoin="round"/>
<path d="M1 13V10C1 7.613 1.843 5.324 3.343 3.636C4.843 1.948 6.878 1 9 1C11.122 1 13.157 1.948 14.657 3.636C16.157 5.324 17 7.613 17 10V13" stroke="#494949" stroke-width="2" stroke-linecap="round" stroke-linejoin="round"/>
</svg>
