<svg width="20" height="24" viewBox="0 0 20 24" fill="none" xmlns="http://www.w3.org/2000/svg">
<path d="M0 21.999C0 22.5294 0.210714 23.0381 0.585786 23.4132C0.960859 23.7883 1.46957 23.999 2 23.999H18C18.5304 23.999 19.0391 23.7883 19.4142 23.4132C19.7893 23.0381 20 22.5294 20 21.999V11.999C20 11.4686 19.7893 10.9599 19.4142 10.5848C19.0391 10.2097 18.5304 9.999 18 9.999H6V6.499C6 5.43813 6.42143 4.42072 7.17157 3.67057C7.92172 2.92043 8.93913 2.499 10 2.499C11.0609 2.499 12.0783 2.92043 12.8284 3.67057C13.5786 4.42072 14 5.43813 14 6.499V6.781C14 7.11252 14.1317 7.43046 14.3661 7.66488C14.6005 7.8993 14.9185 8.031 15.25 8.031C15.5815 8.031 15.8995 7.8993 16.1339 7.66488C16.3683 7.43046 16.5 7.11252 16.5 6.781V6.748V6.75V6.5C16.5 4.77609 15.8152 3.12279 14.5962 1.90381C13.3772 0.684819 11.7239 0 10 0C8.27609 0 6.62279 0.684819 5.40381 1.90381C4.18482 3.12279 3.5 4.77609 3.5 6.5V10H2C1.46957 10 0.960859 10.2107 0.585786 10.5858C0.210714 10.9609 0 11.4696 0 12L0 21.999ZM8 15.499C8.00007 15.1525 8.09016 14.812 8.26143 14.5108C8.43269 14.2096 8.67927 13.9581 8.97699 13.7809C9.27472 13.6036 9.61337 13.5068 9.95978 13.4998C10.3062 13.4929 10.6485 13.576 10.9531 13.7411C11.2577 13.9062 11.5142 14.1476 11.6974 14.4417C11.8807 14.7358 11.9844 15.0724 11.9984 15.4186C12.0124 15.7648 11.9362 16.1087 11.7773 16.4166C11.6184 16.7245 11.3823 16.9858 11.092 17.175L11.084 17.18C11.084 17.18 11.279 18.36 11.499 19.75V19.751C11.4987 19.9496 11.4197 20.1399 11.2793 20.2803C11.1389 20.4207 10.9486 20.4997 10.75 20.5H9.248C9.04943 20.4997 8.85908 20.4207 8.71867 20.2803C8.57826 20.1399 8.49926 19.9496 8.499 19.751V19.75L8.914 17.18C8.63309 16.9988 8.40207 16.7501 8.24205 16.4567C8.08203 16.1632 7.99813 15.8343 7.998 15.5L8 15.499Z" fill="#9BC580"/>
</svg>
