<svg width="20" height="20" viewBox="0 0 20 20" fill="none" xmlns="http://www.w3.org/2000/svg">
<path d="M12.428 1.02179C12.7514 0.697959 13.1355 0.441035 13.5582 0.265709C13.981 0.0903828 14.4341 9.29425e-05 14.8918 7.1717e-08C15.3495 -9.2799e-05 15.8027 0.0900132 16.2255 0.265168C16.6483 0.440322 17.0325 0.69709 17.356 1.02079L18.483 2.14779C19.136 2.80096 19.5028 3.68672 19.5028 4.61029C19.5028 5.53387 19.136 6.41963 18.483 7.07279L7.08 18.4788C6.75672 18.8025 6.37279 19.0593 5.95016 19.2345C5.52753 19.4097 5.0745 19.4999 4.617 19.4998H0.75C0.551088 19.4998 0.360322 19.4208 0.21967 19.2801C0.0790176 19.1395 4.14039e-08 18.9487 4.14039e-08 18.7498V14.9058C-7.0455e-05 14.4488 0.0898829 13.9962 0.264724 13.5739C0.439565 13.1517 0.695869 12.768 1.019 12.4448L12.428 1.02179ZM16.295 2.08179C16.1108 1.89741 15.8921 1.75114 15.6514 1.65135C15.4107 1.55155 15.1526 1.50018 14.892 1.50018C14.6314 1.50018 14.3733 1.55155 14.1326 1.65135C13.8919 1.75114 13.6732 1.89741 13.489 2.08179L12.593 2.97879L16.524 6.90979L17.422 6.0118C17.7938 5.63993 18.0026 5.13562 18.0026 4.6098C18.0026 4.08397 17.7938 3.57966 17.422 3.20779L16.295 2.08179Z" fill="#494949"/>
</svg>
