<svg width="137" height="194" viewBox="0 0 137 194" fill="none" xmlns="http://www.w3.org/2000/svg">
<path d="M136.022 40.3186C136.022 43.8343 136.022 47.1377 136.022 50.441C136.016 68.9522 136.116 87.4606 135.967 105.972C135.867 118.275 133.028 130.034 127.963 141.247C121.787 154.913 112.623 166.258 100.985 175.62C94.614 180.746 87.8122 185.257 80.3847 188.733C76.539 190.532 72.6215 192.177 68.7183 193.841C68.2907 194.025 67.645 194.065 67.2374 193.876C61.6812 191.302 56.0331 188.896 50.6519 185.995C46.4675 183.739 42.5472 180.958 38.6411 178.223C31.3801 173.14 25.0978 166.984 19.6678 159.996C13.0354 151.464 7.88665 142.122 4.66943 131.758C2.25292 123.969 0.571122 116.022 0.189417 107.88C-0.106189 101.572 0.0545292 95.2439 0.0430494 88.9214C0.0172198 74.8931 0.0114798 60.8589 0 46.8248C0 44.9823 0.074619 43.1369 0.0172198 41.2944C-0.0114798 40.3961 0.335785 40.2498 1.13363 40.2498C22.466 40.2785 43.7985 40.2842 65.1309 40.2928C88.1566 40.3014 111.182 40.31 134.208 40.3186C134.727 40.3186 135.247 40.3186 136.022 40.3186ZM5.69687 45.9983C5.67391 46.4173 5.63947 46.7473 5.63947 47.0745C5.61651 63.9269 5.63947 80.7793 5.56198 97.6317C5.53041 104.457 5.84324 111.23 7.02279 117.968C8.79069 128.076 12.1285 137.567 17.3518 146.424C22.9195 155.866 30.0026 163.988 38.4288 170.936C46.5766 177.658 55.6744 182.827 65.3404 187.06C67.0939 187.829 68.4916 187.855 70.2767 187.111C78.436 183.71 86.116 179.494 93.2536 174.28C105.589 165.268 115.464 154.167 122.054 140.308C127.733 128.369 130.402 115.704 130.48 102.531C130.592 83.6952 130.509 64.8568 130.509 45.9983H5.69687Z" fill="#FCF1DC"/>
<path d="M93.3081 70.3097C92.8346 68.2032 90.7969 66.9432 88.6473 67.1671C88.3976 67.1929 88.0016 67.3651 87.9556 67.5402C87.5653 69.067 87.241 70.6082 86.8564 72.3215C89.8469 71.6787 92.0224 72.3359 93.4545 75.0164C93.5635 73.3576 93.6382 71.7877 93.3081 70.3097ZM85.0914 110.779C84.0037 111.488 82.9849 112.151 81.7623 112.949C82.299 114.412 82.7897 116.094 83.5273 117.661C84.2333 119.162 85.2579 120.491 86.9655 121.013C89.0663 121.659 91.2044 121.759 93.3655 121.366C93.7271 121.3 94.083 121.217 94.4417 121.14L94.4762 120.764C89.8039 118.826 87.3501 114.846 85.0972 110.782L85.0914 110.779ZM90.6104 106.876C89.4853 107.631 88.4808 108.305 87.4419 109.005C89.161 112.194 91.3824 114.992 94.5996 116.912C97.7508 118.795 101.665 118.574 104.558 116.126C98.7237 114.55 94.4102 110.977 90.6104 106.873V106.876ZM76.8747 56.0632C76.6652 54.9755 77.0039 53.6381 76.7169 52.6537C75.6579 53.3339 74.6677 55.1764 74.3405 56.3416C73.5484 55.5007 73.3533 53.9624 73.3217 52.8431C73.2844 51.5861 73.6288 50.3635 73.6403 49.1265C73.1696 49.27 72.6674 49.8124 72.3115 50.1999C70.4977 52.1859 70.0126 55.1649 70.799 57.6991C72.3918 62.8277 78.8177 65.6374 83.4584 67.2475C83.645 67.3135 83.843 67.3766 84.0381 67.3364C85.0283 67.1298 83.9922 64.8453 83.6995 64.3746C83.0997 63.4103 82.1727 62.756 81.3375 62.0069C79.4864 60.3481 77.3741 58.6433 76.8747 56.0661V56.0632ZM96.6401 102.597C95.5381 103.573 94.459 104.525 93.2852 105.564C96.0862 108.271 99.2231 110.607 103.026 111.907C107.635 113.485 110.129 112.177 113.297 108.202C107.187 107.639 101.622 105.857 96.6373 102.594L96.6401 102.597ZM120.059 97.3189C118.047 97.626 116.081 98.002 114.092 98.2172C110.169 98.6362 106.277 98.2832 102.403 97.6346C100.483 97.3132 100.486 97.3275 99.5933 98.949C99.3838 99.3307 99.137 99.6895 98.8816 100.097C99.0997 100.278 99.2748 100.464 99.4871 100.591C102.977 102.729 106.791 104.049 110.844 104.296C115.998 104.611 117.878 102.625 120.105 97.5657C120.137 97.4911 120.07 97.3706 120.059 97.316V97.3189ZM123.029 82.8428C119.867 85.4717 116.713 87.5553 113.071 88.6488C109.489 89.725 105.815 90.5056 102.099 91.4384C101.97 92.2764 101.806 93.344 101.599 94.6929C106.214 94.7359 111.139 95.2554 115.711 94.535C117.975 94.1792 121.844 93.2636 122.252 90.586C122.527 88.7808 122.797 86.9727 123.018 85.1589C123.098 84.4959 123.029 83.8157 123.029 82.8428ZM122.938 77.123C122.674 75.6105 122.587 74.0665 122.263 72.5712C121.939 71.0616 121.417 69.598 120.977 68.1113C120.837 68.0597 120.696 68.008 120.556 67.9563C116.144 75.8372 109.363 80.9716 101.456 84.7628C101.64 85.8706 101.818 86.944 102.016 88.1494C104.237 87.6184 106.447 87.1564 108.616 86.5623C113.656 85.1847 118.245 82.9404 122.105 79.3357C122.78 78.7043 123.095 78.0615 122.932 77.123H122.938ZM90.0134 162.059C89.3763 160.831 88.5641 159.692 87.8437 158.504C83.3063 151.039 78.4618 143.752 74.6792 135.845C74.4611 135.389 74.2229 134.941 73.9847 134.496C73.8096 134.169 73.6718 133.825 73.491 133.5C73.4595 133.443 73.1323 132.812 73.0146 133.044C72.9974 133.076 73.006 133.116 73.0146 133.15C73.1926 134.031 73.3246 134.913 73.491 135.794C73.6489 136.623 73.8211 137.452 74.0076 138.276C74.3779 139.909 74.7911 141.531 75.213 143.149C76.0424 146.341 76.9522 149.512 77.8649 152.68C78.7804 155.852 79.6959 159.026 80.5397 162.217C81.2055 164.743 81.8254 167.28 82.3592 169.837C82.8528 169.837 83.3264 169.843 83.7999 169.837C88.168 169.794 89.9302 168.17 90.243 163.845C90.286 163.251 90.2746 162.562 90.0134 162.059ZM98.8012 152.428C98.7036 152.382 98.6261 152.293 98.5429 152.224C89.5657 144.478 80.9185 136.436 74.8629 126.168C74.5386 127.594 74.5902 129.167 75.368 130.639C76.9723 133.676 78.4876 136.769 80.2699 139.697C84.2103 146.154 88.4091 152.457 92.2548 158.969C93.3713 160.863 94.6513 161.089 96.4392 160.823C96.4737 160.817 96.511 160.817 96.5483 160.808C100.078 160.131 102.897 154.339 98.8012 152.425V152.428ZM101.978 133.575C100.061 133.561 98.1469 133.478 96.2297 133.423C96.8669 132.545 97.5901 131.951 98.2818 131.319C99.8602 129.873 101.645 129.012 103.844 129.178C104.699 129.244 104.65 128.802 104.349 128.223C103.293 126.165 100.87 125.536 98.8127 126.963C97.7795 127.68 96.9616 128.711 96.0575 129.609C95.1363 130.519 94.3269 132.005 93.2794 132.195C92.1974 132.393 90.8629 131.38 89.6862 130.8C89.1151 130.519 88.3603 130.1 88.2082 129.589C87.8925 128.524 87.0545 128.059 86.3686 127.39C85.5277 126.575 84.6982 125.749 83.9176 124.879C81.6905 122.379 80.2756 119.438 79.3458 116.051C77.9768 118.02 77.2679 120.06 76.8489 122.224C76.8288 122.325 76.8546 122.445 76.8919 122.546C78.2035 125.93 80.0374 128.975 82.7094 131.466C82.9389 131.678 83.4584 131.856 83.6851 131.741C84.5691 131.279 85.1316 131.779 85.7544 132.246C87.2439 133.363 88.7793 134.413 90.2315 135.575C92.5705 137.441 94.8435 139.387 97.1682 141.272C98.8471 142.633 98.982 143.508 97.7537 145.264C97.4925 145.64 97.3576 146.105 97.1194 146.625C98.8844 146.553 100.334 145.514 100.655 144.056C101.149 141.821 100.965 140.512 99.5417 139.625C98.5515 139.005 97.593 138.322 96.6774 137.596C96.0977 137.137 95.627 136.543 95.1104 136.009L95.2683 135.702C96.9501 135.937 98.6376 136.149 100.317 136.411C102.578 136.764 104.458 137.561 104.438 140.434C105.769 139.783 106.211 139.154 106.246 138.012C106.346 134.918 105.063 133.607 101.978 133.578V133.575Z" fill="#FCF1DC"/>
<path d="M118.658 64.0389C116.661 68.2319 113.788 71.7705 110.399 74.8988C106.553 78.4461 102.357 81.4653 97.3232 83.0122C97.7508 84.4931 98.3822 85.8965 98.5286 87.3487C99.1858 93.8865 96.7406 99.1098 91.3623 102.835C88.9946 104.477 86.3657 105.728 83.9004 107.235C80.0719 109.577 76.9666 112.627 75.0695 116.757C73.4595 120.259 72.1967 123.869 71.9671 127.772C71.8494 129.787 72.0762 131.893 70.4891 133.581C70.2279 133.859 70.2939 134.574 70.4001 135.045C71.7346 141.04 73.0634 147.038 74.4812 153.016C75.7468 158.351 77.199 163.647 78.4188 168.993C79.3658 173.149 76.9809 176.656 72.7879 177.595C71.7203 177.836 70.6412 178.014 69.4415 178.24C69.4415 178.186 69.4415 63.1262 69.4415 63.1061C71.1979 64.0561 72.5353 64.7248 74.0105 66.1741C76.2089 68.3295 78.987 74.873 82.4683 71.0416C82.7094 70.7747 82.9533 70.5078 83.4268 69.9797C83.5589 71.6701 84.2505 73.0993 83.3494 74.4798C78.7029 81.603 81.0218 91.8488 87.6227 96.9401C88.036 97.2587 88.5411 97.5772 89.0491 97.4509C89.3562 97.3763 89.6001 97.1496 89.8211 96.9257C92.163 94.5322 93.4803 91.094 92.7456 87.7706C92.6853 87.4836 92.6193 87.1994 92.5447 86.9182C91.5546 83.0897 92.4873 80.6215 95.8653 78.5838C98.741 76.8475 101.341 74.7926 103.631 72.3474C108.034 67.6521 111.237 62.2595 113.045 56.0632C113.105 55.8537 113.163 55.6414 113.229 55.4319L113.427 54.8148C114.448 56.0977 115.47 57.1969 116.276 58.4338C117.212 59.8717 117.987 61.4157 118.762 62.9483C118.902 63.2267 118.805 63.7174 118.656 64.036L118.658 64.0389Z" fill="#FCF1DC"/>
<path d="M42.5931 75.0164C44.0281 72.3359 46.2006 71.6787 49.1911 72.3215C48.8065 70.6082 48.4794 69.067 48.0919 67.5402C48.046 67.3651 47.6499 67.1929 47.4003 67.1671C45.2507 66.9432 43.213 68.2032 42.7394 70.3097C42.4094 71.7877 42.4811 73.3576 42.5931 75.0164ZM41.5771 120.764L41.6116 121.14C41.9703 121.217 42.3262 121.3 42.6878 121.366C44.8489 121.757 46.987 121.656 49.0878 121.013C50.7954 120.491 51.82 119.162 52.526 117.661C53.2636 116.094 53.7544 114.412 54.291 112.949C53.0684 112.154 52.0467 111.488 50.9619 110.779C48.709 114.846 46.2551 118.826 41.5828 120.761L41.5771 120.764ZM31.4921 116.129C34.3879 118.577 38.2996 118.798 41.4508 116.915C44.6681 114.995 46.8894 112.197 48.6085 109.008C47.5667 108.308 46.5622 107.634 45.4401 106.879C41.6402 110.98 37.3267 114.556 31.4921 116.131V116.129ZM54.7129 62.0069C53.8778 62.756 52.9508 63.4074 52.3509 64.3746C52.0582 64.8482 51.0222 67.1298 52.0123 67.3364C52.2046 67.3766 52.4055 67.3135 52.592 67.2475C57.2356 65.6374 63.6615 62.8277 65.2514 57.6991C66.0378 55.1649 65.5528 52.1859 63.7389 50.1999C63.3831 49.8124 62.8808 49.27 62.4102 49.1265C62.4216 50.3635 62.766 51.5861 62.7287 52.8431C62.6972 53.9624 62.502 55.5036 61.7099 56.3416C61.3827 55.1764 60.3926 53.3339 59.3336 52.6537C59.0466 53.6352 59.3852 54.9726 59.1757 56.0632C58.6763 58.6404 56.564 60.3452 54.7129 62.004V62.0069ZM22.753 108.208C25.9215 112.182 28.4183 113.488 33.0246 111.913C36.8302 110.613 39.9671 108.274 42.7653 105.57C41.5915 104.531 40.5124 103.578 39.4103 102.602C34.4252 105.866 28.8603 107.645 22.7502 108.21L22.753 108.208ZM15.9484 97.5715C18.1755 102.631 20.0553 104.617 25.2097 104.302C29.265 104.052 33.0763 102.735 36.5662 100.596C36.7785 100.47 36.9536 100.281 37.1717 100.103C36.9163 99.6924 36.6666 99.3365 36.46 98.9548C35.5674 97.3333 35.5703 97.3189 33.6503 97.6403C29.7758 98.2889 25.8842 98.6419 21.9609 98.2229C19.9749 98.0106 18.0061 97.6346 15.9943 97.3246C15.9828 97.3763 15.9139 97.4997 15.9484 97.5743V97.5715ZM13.0325 85.1646C13.2535 86.9784 13.5261 88.7865 13.7988 90.5917C14.2063 93.2694 18.075 94.1849 20.3394 94.5408C24.9113 95.2611 29.8361 94.7417 34.451 94.6986C34.2444 93.3497 34.0808 92.2821 33.9516 91.4441C30.235 90.5114 26.5615 89.7307 22.9798 88.6545C19.3407 87.5582 16.1866 85.4774 13.021 82.8486C13.021 83.8215 12.9521 84.5017 13.0325 85.1646ZM13.9423 79.3415C17.8052 82.9433 22.3943 85.1904 27.4311 86.568C29.6008 87.1621 31.8106 87.627 34.032 88.1551C34.2329 86.9497 34.4079 85.8764 34.5916 84.7686C26.6849 80.9774 19.906 75.843 15.492 67.9621C15.3514 68.0137 15.2108 68.0683 15.0702 68.1171C14.6311 69.6008 14.1116 71.0674 13.7844 72.577C13.4601 74.0722 13.374 75.6191 13.11 77.1287C12.9464 78.0672 13.2621 78.7101 13.9365 79.3415H13.9423ZM45.8103 163.85C46.1231 168.175 47.8853 169.797 52.2534 169.843C52.7269 169.849 53.2005 169.843 53.6941 169.843C54.2279 167.286 54.8478 164.749 55.5136 162.223C56.3574 159.032 57.2758 155.857 58.1884 152.686C59.1011 149.518 60.0137 146.346 60.8403 143.155C61.2622 141.536 61.6754 139.915 62.0457 138.282C62.2322 137.458 62.4073 136.632 62.5623 135.799C62.7287 134.918 62.8607 134.037 63.0387 133.156C63.0473 133.122 63.053 133.081 63.0387 133.05C62.9239 132.82 62.5938 133.449 62.5623 133.506C62.3815 133.831 62.2437 134.175 62.0686 134.502C61.8304 134.95 61.5922 135.395 61.3741 135.851C57.5915 143.758 52.747 151.045 48.2096 158.509C47.4892 159.697 46.677 160.837 46.0399 162.065C45.7787 162.57 45.7701 163.256 45.8103 163.85ZM39.505 160.814C39.5423 160.82 39.5767 160.823 39.6141 160.828C41.3992 161.095 42.6792 160.868 43.7985 158.974C47.6442 152.462 51.843 146.16 55.7834 139.702C57.5685 136.775 59.0839 133.681 60.6853 130.645C61.4631 129.173 61.5119 127.6 61.1904 126.173C55.1377 136.442 46.4876 144.484 37.5104 152.23C37.4271 152.302 37.3497 152.388 37.2521 152.434C33.1566 154.348 35.9749 160.139 39.505 160.817V160.814ZM29.8103 138.012C29.8447 139.154 30.2867 139.783 31.6183 140.434C31.5954 137.561 33.4781 136.764 35.7396 136.411C37.4185 136.147 39.1061 135.934 40.7879 135.702L40.9457 136.009C40.4263 136.54 39.9556 137.134 39.3787 137.596C38.4632 138.325 37.5046 139.005 36.5145 139.625C35.091 140.515 34.9102 141.823 35.401 144.056C35.7253 145.514 37.1746 146.556 38.9367 146.625C38.6985 146.102 38.5637 145.64 38.3025 145.264C37.0741 143.508 37.209 142.633 38.888 141.272C41.2126 139.387 43.4885 137.441 45.8246 135.575C47.2797 134.413 48.8152 133.363 50.3018 132.246C50.9246 131.781 51.4871 131.282 52.371 131.741C52.5949 131.859 53.1172 131.678 53.3468 131.466C56.0188 128.975 57.8527 125.93 59.1642 122.546C59.2015 122.448 59.2274 122.325 59.2073 122.224C58.7883 120.063 58.0823 118.02 56.7104 116.051C55.7805 119.438 54.3657 122.379 52.1386 124.879C51.3608 125.752 50.5285 126.578 49.6876 127.39C48.9988 128.059 48.1637 128.524 47.848 129.589C47.6959 130.1 46.9382 130.516 46.3699 130.8C45.1933 131.38 43.8587 132.393 42.7768 132.195C41.7292 132.005 40.9199 130.519 39.9986 129.609C39.0917 128.711 38.2767 127.68 37.2435 126.963C35.1857 125.536 32.7635 126.165 31.7073 128.223C31.4088 128.802 31.3572 129.244 32.2124 129.178C34.4108 129.012 36.1959 129.873 37.7744 131.319C38.4661 131.951 39.1893 132.545 39.8264 133.423C37.9093 133.475 35.995 133.561 34.0779 133.575C30.9927 133.604 29.7098 134.915 29.8103 138.009V138.012Z" fill="#FCF1DC"/>
<path d="M17.3919 64.0389C19.3894 68.2319 22.2623 71.7705 25.6517 74.8988C29.4974 78.4461 33.6933 81.4653 38.7272 83.0122C38.2996 84.4931 37.6682 85.8965 37.5218 87.3487C36.8646 93.8865 39.3098 99.1098 44.6881 102.835C47.0559 104.477 49.6847 105.728 52.15 107.235C55.9786 109.577 59.0839 112.627 60.9809 116.757C62.5909 120.259 63.8537 123.869 64.0833 127.772C64.201 129.787 63.9743 131.893 65.5614 133.581C65.8225 133.859 65.7565 134.574 65.6503 135.045C64.3158 141.04 62.987 147.038 61.5692 153.016C60.3036 158.351 58.8514 163.647 57.6317 168.993C56.6846 173.149 59.0695 176.656 63.2625 177.595C64.3301 177.836 65.4092 178.014 66.6089 178.24C66.6089 178.186 66.6089 63.1262 66.6089 63.1061C64.8525 64.0561 63.5151 64.7248 62.0399 66.1741C59.8415 68.3295 57.0634 74.873 53.5821 71.0416C53.3411 70.7747 53.0971 70.5078 52.6236 69.9797C52.4916 71.6701 51.7999 73.0993 52.7011 74.4798C57.3475 81.603 55.0286 91.8488 48.4277 96.9401C48.0144 97.2587 47.5093 97.5772 47.0013 97.4509C46.6942 97.3763 46.4503 97.1496 46.2293 96.9257C43.8874 94.5322 42.5701 91.094 43.3048 87.7706C43.3651 87.4836 43.4311 87.1994 43.5057 86.9182C44.4958 83.0897 43.5631 80.6215 40.1852 78.5838C37.3095 76.8475 34.7093 74.7926 32.4191 72.3474C28.0165 67.6521 24.8137 62.2595 23.0056 56.0632C22.9453 55.8537 22.8879 55.6414 22.8219 55.4319L22.6239 54.8148C21.6022 56.0977 20.5805 57.1969 19.774 58.4338C18.8384 59.8717 18.0635 61.4157 17.2886 62.9483C17.148 63.2267 17.2456 63.7174 17.3948 64.036L17.3919 64.0389Z" fill="#FCF1DC"/>
<path d="M76.823 18.2401C76.7456 18.0334 76.6996 17.9416 76.6767 17.844C76.2835 16.2081 75.4512 15.3816 74.3319 15.5193C72.9859 15.6858 71.7059 17.1724 71.6026 18.5385C71.3988 21.1789 73.1466 22.5967 75.0121 23.7963C78.5651 26.0837 82.3477 26.3908 86.2308 24.5913C87.9642 23.7877 88.7018 22.5508 88.3603 21.0928C88.0274 19.6751 86.5895 18.639 84.9049 18.5988C84.8044 18.5988 84.7068 18.5845 84.6121 18.5787C83.886 16.8539 84.3653 15.0286 85.7658 14.1647C87.1319 13.321 89.1581 13.7027 90.2803 15.0142C90.4582 15.2209 90.6075 15.4677 90.8227 15.6198C91.0179 15.7604 91.2848 15.8006 91.523 15.8867C91.6091 15.6284 91.8128 15.3443 91.7669 15.1118C91.2216 12.348 93.4602 10.5801 95.5323 10.2214C96.7061 10.0176 97.923 10.0521 99.1198 9.97746L99.3723 10.3132C96.5339 16.6042 93.6927 22.898 90.8399 29.2234C90.992 29.3038 91.3163 29.476 91.7009 29.6797C91.6119 30.1045 91.5259 30.5235 91.4082 31.0946C90.3233 31.0085 89.2155 30.9683 88.1221 30.8248C79.7045 29.7285 71.2467 29.3841 62.7689 29.6424C59.035 29.7572 55.307 30.1274 51.5789 30.4231C49.5843 30.5809 47.5982 30.8277 45.6065 31.0372C44.6164 31.1405 44.4585 31.0028 44.1973 29.7228C44.6422 29.5535 45.0985 29.3784 45.4659 29.2406C42.55 22.8865 39.6542 16.5698 36.6752 10.075C39.0458 10.0062 41.1781 9.88562 43.035 11.2201C44.1198 11.9979 44.6824 13.0799 44.6451 14.4575C44.6336 14.9511 44.7369 15.4447 44.9206 15.9843C46.5249 14.3484 48.1034 12.9134 50.4797 14.1992C51.8142 14.9195 52.2332 16.3545 51.8601 18.5959C51.6449 18.5959 51.4182 18.5959 51.1914 18.5959C49.8684 18.5759 48.9098 19.1585 48.3473 20.361C47.8221 21.4803 48.0373 22.8578 48.884 23.7676C50.1726 25.1538 51.9032 25.5068 53.6625 25.7134C57.4853 26.1583 60.6623 24.8037 63.2883 22.0772C64.3186 21.0096 64.8381 19.7181 64.6745 18.1913C64.5396 16.9342 63.4892 15.6858 62.3843 15.5423C60.9263 15.3529 60.1055 15.8752 59.5086 17.3676C59.4598 17.491 59.3737 17.6001 59.2359 17.8297C57.7895 16.0733 56.7161 14.1934 56.7333 11.9635C56.7505 9.84257 59.0752 8.19521 61.2133 8.60274C62.1375 8.77781 63.0358 9.08777 63.9742 9.34319C63.9599 9.36615 64.0345 9.2944 64.0202 9.26283C62.7172 6.39574 64.4994 4.42408 66.0349 2.39789C66.4625 1.83251 66.9762 1.31878 67.5186 0.856721C67.7023 0.698873 68.2476 0.644344 68.3624 0.773492C69.8864 2.52991 71.7949 4.07108 72.2627 6.49619C72.4808 7.62696 72.3 8.83521 72.3 9.80813C73.3073 9.59862 74.4352 9.42068 75.5316 9.12795C77.5692 8.58265 79.4261 10.2731 79.5409 12.1471C79.6901 14.578 78.6598 16.5726 76.8202 18.2429L76.823 18.2401Z" fill="#FCF1DC"/>
</svg>
