<svg width="475" height="674" viewBox="0 0 475 674" fill="none" xmlns="http://www.w3.org/2000/svg">
<path d="M473.95 138.041C473.95 150.291 473.95 161.801 473.95 173.311C473.93 237.811 474.28 302.301 473.76 366.801C473.41 409.671 463.52 450.641 445.87 489.711C424.35 537.331 392.42 576.861 351.87 609.481C329.67 627.341 305.97 643.061 280.09 655.171C266.69 661.441 253.04 667.171 239.44 672.971C237.95 673.611 235.7 673.751 234.28 673.091C214.92 664.121 195.24 655.741 176.49 645.631C161.91 637.771 148.25 628.081 134.64 618.551C109.34 600.841 87.45 579.391 68.53 555.041C45.42 525.311 27.48 492.761 16.27 456.651C7.85 429.511 1.99 401.821 0.66 373.451C-0.37 351.471 0.19 329.421 0.15 307.391C0.06 258.511 0.04 209.611 0 160.711C0 154.291 0.26 147.861 0.06 141.441C-0.04 138.311 1.17 137.801 3.95 137.801C78.28 137.901 152.61 137.921 226.94 137.951C307.17 137.981 387.4 138.011 467.63 138.041C469.44 138.041 471.25 138.041 473.95 138.041ZM19.85 157.831C19.77 159.291 19.65 160.441 19.65 161.581C19.57 220.301 19.65 279.021 19.38 337.741C19.27 361.521 20.36 385.121 24.47 408.601C30.63 443.821 42.26 476.891 60.46 507.751C79.86 540.651 104.54 568.951 133.9 593.161C162.29 616.581 193.99 634.591 227.67 649.341C233.78 652.021 238.65 652.111 244.87 649.521C273.3 637.671 300.06 622.981 324.93 604.811C367.91 573.411 402.32 534.731 425.28 486.441C445.07 444.841 454.37 400.711 454.64 354.811C455.03 289.181 454.74 223.541 454.74 157.831H19.85Z" fill="#028C3C"/>
<path d="M325.12 242.541C323.47 235.201 316.37 230.811 308.88 231.591C308.01 231.681 306.63 232.281 306.47 232.891C305.11 238.211 303.98 243.581 302.64 249.551C313.06 247.311 320.64 249.601 325.63 258.941C326.01 253.161 326.27 247.691 325.12 242.541ZM296.49 383.551C292.7 386.021 289.15 388.331 284.89 391.111C286.76 396.211 288.47 402.071 291.04 407.531C293.5 412.761 297.07 417.391 303.02 419.211C310.34 421.461 317.79 421.811 325.32 420.441C326.58 420.211 327.82 419.921 329.07 419.651L329.19 418.341C312.91 411.591 304.36 397.721 296.51 383.561L296.49 383.551ZM315.72 369.951C311.8 372.581 308.3 374.931 304.68 377.371C310.67 388.481 318.41 398.231 329.62 404.921C340.6 411.481 354.24 410.711 364.32 402.181C343.99 396.691 328.96 384.241 315.72 369.941V369.951ZM267.86 192.901C267.13 189.111 268.31 184.451 267.31 181.021C263.62 183.391 260.17 189.811 259.03 193.871C256.27 190.941 255.59 185.581 255.48 181.681C255.35 177.301 256.55 173.041 256.59 168.731C254.95 169.231 253.2 171.121 251.96 172.471C245.64 179.391 243.95 189.771 246.69 198.601C252.24 216.471 274.63 226.261 290.8 231.871C291.45 232.101 292.14 232.321 292.82 232.181C296.27 231.461 292.66 223.501 291.64 221.861C289.55 218.501 286.32 216.221 283.41 213.611C276.96 207.831 269.6 201.891 267.86 192.911V192.901ZM336.73 355.041C332.89 358.441 329.13 361.761 325.04 365.381C334.8 374.811 345.73 382.951 358.98 387.481C375.04 392.981 383.73 388.421 394.77 374.571C373.48 372.611 354.09 366.401 336.72 355.031L336.73 355.041ZM418.33 336.651C411.32 337.721 404.47 339.031 397.54 339.781C383.87 341.241 370.31 340.011 356.81 337.751C350.12 336.631 350.13 336.681 347.02 342.331C346.29 343.661 345.43 344.911 344.54 346.331C345.3 346.961 345.91 347.611 346.65 348.051C358.81 355.501 372.1 360.101 386.22 360.961C404.18 362.061 410.73 355.141 418.49 337.511C418.6 337.251 418.37 336.831 418.33 336.641V336.651ZM428.68 286.211C417.66 295.371 406.67 302.631 393.98 306.441C381.5 310.191 368.7 312.911 355.75 316.161C355.3 319.081 354.73 322.801 354.01 327.501C370.09 327.651 387.25 329.461 403.18 326.951C411.07 325.711 424.55 322.521 425.97 313.191C426.93 306.901 427.87 300.601 428.64 294.281C428.92 291.971 428.68 289.601 428.68 286.211ZM428.36 266.281C427.44 261.011 427.14 255.631 426.01 250.421C424.88 245.161 423.06 240.061 421.53 234.881C421.04 234.701 420.55 234.521 420.06 234.341C404.69 261.801 381.06 279.691 353.51 292.901C354.15 296.761 354.77 300.501 355.46 304.701C363.2 302.851 370.9 301.241 378.46 299.171C396.02 294.371 412.01 286.551 425.46 273.991C427.81 271.791 428.91 269.551 428.34 266.281H428.36ZM313.64 562.231C311.42 557.951 308.59 553.981 306.08 549.841C290.27 523.831 273.39 498.441 260.21 470.891C259.45 469.301 258.62 467.741 257.79 466.191C257.18 465.051 256.7 463.851 256.07 462.721C255.96 462.521 254.82 460.321 254.41 461.131C254.35 461.241 254.38 461.381 254.41 461.501C255.03 464.571 255.49 467.641 256.07 470.711C256.62 473.601 257.22 476.491 257.87 479.361C259.16 485.051 260.6 490.701 262.07 496.341C264.96 507.461 268.13 518.511 271.31 529.551C274.5 540.601 277.69 551.661 280.63 562.781C282.95 571.581 285.11 580.421 286.97 589.331C288.69 589.331 290.34 589.351 291.99 589.331C307.21 589.181 313.35 583.521 314.44 568.451C314.59 566.381 314.55 563.981 313.64 562.231ZM344.26 528.671C343.92 528.511 343.65 528.201 343.36 527.961C312.08 500.971 281.95 472.951 260.85 437.171C259.72 442.141 259.9 447.621 262.61 452.751C268.2 463.331 273.48 474.111 279.69 484.311C293.42 506.811 308.05 528.771 321.45 551.461C325.34 558.061 329.8 558.851 336.03 557.921C336.15 557.901 336.28 557.901 336.41 557.871C348.71 555.511 358.53 535.331 344.26 528.661V528.671ZM355.33 462.981C348.65 462.931 341.98 462.641 335.3 462.451C337.52 459.391 340.04 457.321 342.45 455.121C347.95 450.081 354.17 447.081 361.83 447.661C364.81 447.891 364.64 446.351 363.59 444.331C359.91 437.161 351.47 434.971 344.3 439.941C340.7 442.441 337.85 446.031 334.7 449.161C331.49 452.331 328.67 457.511 325.02 458.171C321.25 458.861 316.6 455.331 312.5 453.311C310.51 452.331 307.88 450.871 307.35 449.091C306.25 445.381 303.33 443.761 300.94 441.431C298.01 438.591 295.12 435.711 292.4 432.681C284.64 423.971 279.71 413.721 276.47 401.921C271.7 408.781 269.23 415.891 267.77 423.431C267.7 423.781 267.79 424.201 267.92 424.551C272.49 436.341 278.88 446.951 288.19 455.631C288.99 456.371 290.8 456.991 291.59 456.591C294.67 454.981 296.63 456.721 298.8 458.351C303.99 462.241 309.34 465.901 314.4 469.951C322.55 476.451 330.47 483.231 338.57 489.801C344.42 494.541 344.89 497.591 340.61 503.711C339.7 505.021 339.23 506.641 338.4 508.451C344.55 508.201 349.6 504.581 350.72 499.501C352.44 491.711 351.8 487.151 346.84 484.061C343.39 481.901 340.05 479.521 336.86 476.991C334.84 475.391 333.2 473.321 331.4 471.461L331.95 470.391C337.81 471.211 343.69 471.951 349.54 472.861C357.42 474.091 363.97 476.871 363.9 486.881C368.54 484.611 370.08 482.421 370.2 478.441C370.55 467.661 366.08 463.091 355.33 462.991V462.981Z" fill="#028C3C"/>
<path d="M413.45 220.691C406.49 235.301 396.48 247.631 384.67 258.531C371.27 270.891 356.65 281.411 339.11 286.801C340.6 291.961 342.8 296.851 343.31 301.911C345.6 324.691 337.08 342.891 318.34 355.871C310.09 361.591 300.93 365.951 292.34 371.201C279 379.361 268.18 389.991 261.57 404.381C255.96 416.581 251.56 429.161 250.76 442.761C250.35 449.781 251.14 457.121 245.61 463.001C244.7 463.971 244.93 466.461 245.3 468.101C249.95 488.991 254.58 509.891 259.52 530.721C263.93 549.311 268.99 567.761 273.24 586.391C276.54 600.871 268.23 613.091 253.62 616.361C249.9 617.201 246.14 617.821 241.96 618.611C241.96 618.421 241.96 217.511 241.96 217.441C248.08 220.751 252.74 223.081 257.88 228.131C265.54 235.641 275.22 258.441 287.35 245.091C288.19 244.161 289.04 243.231 290.69 241.391C291.15 247.281 293.56 252.261 290.42 257.071C274.23 281.891 282.31 317.591 305.31 335.331C306.75 336.441 308.51 337.551 310.28 337.111C311.35 336.851 312.2 336.061 312.97 335.281C321.13 326.941 325.72 314.961 323.16 303.381C322.95 302.381 322.72 301.391 322.46 300.411C319.01 287.071 322.26 278.471 334.03 271.371C344.05 265.321 353.11 258.161 361.09 249.641C376.43 233.281 387.59 214.491 393.89 192.901C394.1 192.171 394.3 191.431 394.53 190.701L395.22 188.551C398.78 193.021 402.34 196.851 405.15 201.161C408.41 206.171 411.11 211.551 413.81 216.891C414.3 217.861 413.96 219.571 413.44 220.681L413.45 220.691Z" fill="#028C3C"/>
<path d="M148.41 258.941C153.41 249.601 160.98 247.311 171.4 249.551C170.06 243.581 168.92 238.211 167.57 232.891C167.41 232.281 166.03 231.681 165.16 231.591C157.67 230.811 150.57 235.201 148.92 242.541C147.77 247.691 148.02 253.161 148.41 258.941ZM144.87 418.341L144.99 419.651C146.24 419.921 147.48 420.211 148.74 420.441C156.27 421.801 163.72 421.451 171.04 419.211C176.99 417.391 180.56 412.761 183.02 407.531C185.59 402.071 187.3 396.211 189.17 391.111C184.91 388.341 181.35 386.021 177.57 383.551C169.72 397.721 161.17 411.591 144.89 418.331L144.87 418.341ZM109.73 402.191C119.82 410.721 133.45 411.491 144.43 404.931C155.64 398.241 163.38 388.491 169.37 377.381C165.74 374.941 162.24 372.591 158.33 369.961C145.09 384.251 130.06 396.711 109.73 402.201V402.191ZM190.64 213.611C187.73 216.221 184.5 218.491 182.41 221.861C181.39 223.511 177.78 231.461 181.23 232.181C181.9 232.321 182.6 232.101 183.25 231.871C199.43 226.261 221.82 216.471 227.36 198.601C230.1 189.771 228.41 179.391 222.09 172.471C220.85 171.121 219.1 169.231 217.46 168.731C217.5 173.041 218.7 177.301 218.57 181.681C218.46 185.581 217.78 190.951 215.02 193.871C213.88 189.811 210.43 183.391 206.74 181.021C205.74 184.441 206.92 189.101 206.19 192.901C204.45 201.881 197.09 207.821 190.64 213.601V213.611ZM79.2799 374.591C90.3199 388.441 99.0199 392.991 115.07 387.501C128.33 382.971 139.26 374.821 149.01 365.401C144.92 361.781 141.16 358.461 137.32 355.061C119.95 366.431 100.56 372.631 79.2699 374.601L79.2799 374.591ZM55.5699 337.531C63.3299 355.161 69.8799 362.081 87.8399 360.981C101.97 360.111 115.25 355.521 127.41 348.071C128.15 347.631 128.76 346.971 129.52 346.351C128.63 344.921 127.76 343.681 127.04 342.351C123.93 336.701 123.94 336.651 117.25 337.771C103.75 340.031 90.1899 341.261 76.5199 339.801C69.5999 339.061 62.7399 337.751 55.7299 336.671C55.6899 336.851 55.4499 337.281 55.5699 337.541V337.531ZM45.4099 294.301C46.1799 300.621 47.1299 306.921 48.0799 313.211C49.4999 322.541 62.9799 325.731 70.8699 326.971C86.7999 329.481 103.96 327.671 120.04 327.521C119.32 322.821 118.75 319.101 118.3 316.181C105.35 312.931 92.5499 310.211 80.0699 306.461C67.3899 302.641 56.3999 295.391 45.3699 286.231C45.3699 289.621 45.1299 291.991 45.4099 294.301ZM48.5799 274.011C62.0399 286.561 78.0299 294.391 95.5799 299.191C103.14 301.261 110.84 302.881 118.58 304.721C119.28 300.521 119.89 296.781 120.53 292.921C92.9799 279.711 69.3599 261.821 53.9799 234.361C53.4899 234.541 52.9999 234.731 52.5099 234.901C50.9799 240.071 49.1699 245.181 48.0299 250.441C46.8999 255.651 46.5999 261.041 45.6799 266.301C45.1099 269.571 46.2099 271.811 48.5599 274.011H48.5799ZM159.62 568.471C160.71 583.541 166.85 589.191 182.07 589.351C183.72 589.371 185.37 589.351 187.09 589.351C188.95 580.441 191.11 571.601 193.43 562.801C196.37 551.681 199.57 540.621 202.75 529.571C205.93 518.531 209.11 507.481 211.99 496.361C213.46 490.721 214.9 485.071 216.19 479.381C216.84 476.511 217.45 473.631 217.99 470.731C218.57 467.661 219.03 464.591 219.65 461.521C219.68 461.401 219.7 461.261 219.65 461.151C219.25 460.351 218.1 462.541 217.99 462.741C217.36 463.871 216.88 465.071 216.27 466.211C215.44 467.771 214.61 469.321 213.85 470.911C200.67 498.461 183.79 523.851 167.98 549.861C165.47 554.001 162.64 557.971 160.42 562.251C159.51 564.011 159.48 566.401 159.62 568.471ZM137.65 557.891C137.78 557.911 137.9 557.921 138.03 557.941C144.25 558.871 148.71 558.081 152.61 551.481C166.01 528.791 180.64 506.831 194.37 484.331C200.59 474.131 205.87 463.351 211.45 452.771C214.16 447.641 214.33 442.161 213.21 437.191C192.12 472.971 161.98 500.991 130.7 527.981C130.41 528.231 130.14 528.531 129.8 528.691C115.53 535.361 125.35 555.541 137.65 557.901V557.891ZM103.87 478.441C103.99 482.421 105.53 484.611 110.17 486.881C110.09 476.871 116.65 474.091 124.53 472.861C130.38 471.941 136.26 471.201 142.12 470.391L142.67 471.461C140.86 473.311 139.22 475.381 137.21 476.991C134.02 479.531 130.68 481.901 127.23 484.061C122.27 487.161 121.64 491.721 123.35 499.501C124.48 504.581 129.53 508.211 135.67 508.451C134.84 506.631 134.37 505.021 133.46 503.711C129.18 497.591 129.65 494.541 135.5 489.801C143.6 483.231 151.53 476.451 159.67 469.951C164.74 465.901 170.09 462.241 175.27 458.351C177.44 456.731 179.4 454.991 182.48 456.591C183.26 457.001 185.08 456.371 185.88 455.631C195.19 446.951 201.58 436.341 206.15 424.551C206.28 424.211 206.37 423.781 206.3 423.431C204.84 415.901 202.38 408.781 197.6 401.921C194.36 413.721 189.43 423.971 181.67 432.681C178.96 435.721 176.06 438.601 173.13 441.431C170.73 443.761 167.82 445.381 166.72 449.091C166.19 450.871 163.55 452.321 161.57 453.311C157.47 455.331 152.82 458.861 149.05 458.171C145.4 457.511 142.58 452.331 139.37 449.161C136.21 446.031 133.37 442.441 129.77 439.941C122.6 434.971 114.16 437.161 110.48 444.331C109.44 446.351 109.26 447.891 112.24 447.661C119.9 447.081 126.12 450.081 131.62 455.121C134.03 457.321 136.55 459.391 138.77 462.451C132.09 462.631 125.42 462.931 118.74 462.981C107.99 463.081 103.52 467.651 103.87 478.431V478.441Z" fill="#028C3C"/>
<path d="M60.5999 220.691C67.5599 235.301 77.5699 247.631 89.3799 258.531C102.78 270.891 117.4 281.411 134.94 286.801C133.45 291.961 131.25 296.851 130.74 301.911C128.45 324.691 136.97 342.891 155.71 355.871C163.96 361.591 173.12 365.951 181.71 371.201C195.05 379.361 205.87 389.991 212.48 404.381C218.09 416.581 222.49 429.161 223.29 442.761C223.7 449.781 222.91 457.121 228.44 463.001C229.35 463.971 229.12 466.461 228.75 468.101C224.1 488.991 219.47 509.891 214.53 530.721C210.12 549.311 205.06 567.761 200.81 586.391C197.51 600.871 205.82 613.091 220.43 616.361C224.15 617.201 227.91 617.821 232.09 618.611C232.09 618.421 232.09 217.511 232.09 217.441C225.97 220.751 221.31 223.081 216.17 228.131C208.51 235.641 198.83 258.441 186.7 245.091C185.86 244.161 185.01 243.231 183.36 241.391C182.9 247.281 180.49 252.261 183.63 257.071C199.82 281.891 191.74 317.591 168.74 335.331C167.3 336.441 165.54 337.551 163.77 337.111C162.7 336.851 161.85 336.061 161.08 335.281C152.92 326.941 148.33 314.961 150.89 303.381C151.1 302.381 151.33 301.391 151.59 300.411C155.04 287.071 151.79 278.471 140.02 271.371C130 265.321 120.94 258.161 112.96 249.641C97.6199 233.281 86.4599 214.491 80.1599 192.901C79.9499 192.171 79.7499 191.431 79.5199 190.701L78.8299 188.551C75.2699 193.021 71.7099 196.851 68.8999 201.161C65.6399 206.171 62.9399 211.551 60.2399 216.891C59.7499 217.861 60.0899 219.571 60.6099 220.681L60.5999 220.691Z" fill="#028C3C"/>
<path d="M267.68 61.1111C267.41 60.3911 267.25 60.0711 267.17 59.7311C265.8 54.0311 262.9 51.1511 259 51.6311C254.31 52.2111 249.85 57.3911 249.49 62.1511C248.78 71.3511 254.87 76.2911 261.37 80.4711C273.75 88.4411 286.93 89.5111 300.46 83.2411C306.5 80.4411 309.07 76.1311 307.88 71.0511C306.72 66.1111 301.71 62.5011 295.84 62.3611C295.49 62.3611 295.15 62.3111 294.82 62.2911C292.29 56.2811 293.96 49.9211 298.84 46.9111C303.6 43.9711 310.66 45.3011 314.57 49.8711C315.19 50.5911 315.71 51.4511 316.46 51.9811C317.14 52.4711 318.07 52.6111 318.9 52.9111C319.2 52.0111 319.91 51.0211 319.75 50.2111C317.85 40.5811 325.65 34.4211 332.87 33.1711C336.96 32.4611 341.2 32.5811 345.37 32.3211L346.25 33.4911C336.36 55.4111 326.46 77.3411 316.52 99.3811C317.05 99.6611 318.18 100.261 319.52 100.971C319.21 102.451 318.91 103.911 318.5 105.901C314.72 105.601 310.86 105.461 307.05 104.961C277.72 101.141 248.25 99.9411 218.71 100.841C205.7 101.241 192.71 102.531 179.72 103.561C172.77 104.111 165.85 104.971 158.91 105.701C155.46 106.061 154.91 105.581 154 101.121C155.55 100.531 157.14 99.9211 158.42 99.4411C148.26 77.3011 138.17 55.2911 127.79 32.6611C136.05 32.4211 143.48 32.0011 149.95 36.6511C153.73 39.3611 155.69 43.1311 155.56 47.9311C155.52 49.6511 155.88 51.3711 156.52 53.2511C162.11 47.5511 167.61 42.5511 175.89 47.0311C180.54 49.5411 182 54.5411 180.7 62.3511C179.95 62.3511 179.16 62.3511 178.37 62.3511C173.76 62.2811 170.42 64.3111 168.46 68.5011C166.63 72.4011 167.38 77.2011 170.33 80.3711C174.82 85.2011 180.85 86.4311 186.98 87.1511C200.3 88.7011 211.37 83.9811 220.52 74.4811C224.11 70.7611 225.92 66.2611 225.35 60.9411C224.88 56.5611 221.22 52.2111 217.37 51.7111C212.29 51.0511 209.43 52.8711 207.35 58.0711C207.18 58.5011 206.88 58.8811 206.4 59.6811C201.36 53.5611 197.62 47.0111 197.68 39.2411C197.74 31.8511 205.84 26.1111 213.29 27.5311C216.51 28.1411 219.64 29.2211 222.91 30.1111C222.86 30.1911 223.12 29.9411 223.07 29.8311C218.53 19.8411 224.74 12.9711 230.09 5.91114C231.58 3.94114 233.37 2.15114 235.26 0.541139C235.9 -0.00886095 237.8 -0.198861 238.2 0.251139C243.51 6.37114 250.16 11.7411 251.79 20.1911C252.55 24.1311 251.92 28.3411 251.92 31.7311C255.43 31.0011 259.36 30.3811 263.18 29.3611C270.28 27.4611 276.75 33.3511 277.15 39.8811C277.67 48.3511 274.08 55.3011 267.67 61.1211L267.68 61.1111Z" fill="#028C3C"/>
</svg>
