<svg width="22" height="18" viewBox="0 0 22 18" fill="none" xmlns="http://www.w3.org/2000/svg">
<path d="M16 0.75C18.8858 0.75 21.25 3.11421 21.25 6C21.25 7.27433 20.6622 8.61908 19.6768 9.96289C18.697 11.2989 17.3743 12.5662 16.0254 13.6699C14.6803 14.7705 13.3311 15.6902 12.3164 16.3359C11.8098 16.6583 11.3875 16.9114 11.0938 17.083C11.0614 17.1019 11.0301 17.1188 11.001 17.1357C10.9718 17.1187 10.9406 17.1011 10.9082 17.082C10.6144 16.9091 10.1923 16.6545 9.68555 16.3301C8.67058 15.6803 7.32116 14.7554 5.97559 13.6514C4.62638 12.5444 3.30329 11.2756 2.32324 9.94141C1.33701 8.59879 0.75 7.26061 0.75 6C0.75 3.11421 3.11421 0.75 6 0.75C7.84484 0.75 9.45555 1.67005 10.3672 3.10254L11 4.09668L11.6328 3.10254C12.5445 1.67005 14.1552 0.75 16 0.75Z" stroke="#F44336" stroke-width="1.5"/>
</svg>
