<svg width="40" height="40" viewBox="0 0 40 40" fill="none" xmlns="http://www.w3.org/2000/svg">
<path fill-rule="evenodd" clip-rule="evenodd" d="M0 6C0 4.4087 0.632141 2.88258 1.75736 1.75736C2.88258 0.632141 4.4087 0 6 0H34C35.5913 0 37.1174 0.632141 38.2426 1.75736C39.3679 2.88258 40 4.4087 40 6V19C39.9998 19.1687 39.9783 19.3367 39.936 19.5C39.9783 19.6633 39.9998 19.8313 40 20V34C40 35.5913 39.3679 37.1174 38.2426 38.2426C37.1174 39.3679 35.5913 40 34 40H6C4.4087 40 2.88258 39.3679 1.75736 38.2426C0.632141 37.1174 0 35.5913 0 34V28C0.000160592 27.8313 0.0216648 27.6633 0.0640001 27.5C0.0216648 27.3367 0.000160592 27.1687 0 27V6ZM5.988 25.66C5.292 25.6733 4.62933 25.704 4 25.752V6C4 5.46957 4.21071 4.96086 4.58579 4.58579C4.96086 4.21071 5.46957 4 6 4H34C34.5304 4 35.0391 4.21071 35.4142 4.58579C35.7893 4.96086 36 5.46957 36 6V18.032C27.406 18.31 21.2 20.38 16.84 23.278C18.492 23.864 20.34 24.698 22.152 25.79C24.95 27.47 27.794 29.83 29.708 32.956C29.8451 33.18 29.9367 33.4289 29.9777 33.6883C30.0186 33.9478 30.008 34.2127 29.9465 34.4681C29.8851 34.7235 29.7739 34.9642 29.6194 35.1766C29.4649 35.389 29.27 35.5689 29.046 35.706C28.822 35.8431 28.5731 35.9347 28.3137 35.9757C28.0542 36.0166 27.7893 36.006 27.5339 35.9445C27.2785 35.8831 27.0378 35.7719 26.8254 35.6174C26.613 35.4629 26.4331 35.268 26.296 35.044C24.824 32.638 22.54 30.688 20.092 29.218C17.648 27.75 15.162 26.834 13.438 26.434C11.0093 25.88 8.52272 25.6208 6.032 25.662H5.988V25.66ZM9.956 8.976C10.8472 8.34747 11.9095 8.00688 13 8C13.82 8 15.006 8.23 16.044 8.976C17.184 9.796 18 11.148 18 13C18 14.852 17.184 16.202 16.044 17.022C15.153 17.6512 14.0907 17.9925 13 18C12.18 18 10.994 17.77 9.956 17.022C8.816 16.202 8 14.854 8 13C8 11.148 8.816 9.798 9.956 8.976Z" fill="#009A47"/>
</svg>
