<svg width="32" height="40" viewBox="0 0 32 40" fill="none" xmlns="http://www.w3.org/2000/svg">
<path d="M18 14H29L18 3V14ZM4 0H20L32 12V36C32 37.0609 31.5786 38.0783 30.8284 38.8284C30.0783 39.5786 29.0609 40 28 40H4C2.93913 40 1.92172 39.5786 1.17157 38.8284C0.421427 38.0783 0 37.0609 0 36V4C0 2.93913 0.421427 1.92172 1.17157 1.17157C1.92172 0.421427 2.93913 0 4 0ZM13.86 20.88C14.68 22.68 15.72 24.16 16.92 25.18L17.74 25.82C16 26.14 13.6 26.7 11.06 27.68L10.84 27.76L11.84 25.68C12.74 23.94 13.4 22.36 13.86 20.88ZM26.82 28.5C27.18 28.14 27.36 27.68 27.38 27.18C27.44 26.78 27.34 26.4 27.14 26.08C26.56 25.14 25.06 24.7 22.58 24.7L20 24.84L18.26 23.68C17 22.64 15.86 20.82 15.06 18.56L15.14 18.28C15.8 15.62 16.42 12.4 15.1 11.08C14.9385 10.9232 14.7476 10.8001 14.5381 10.7177C14.3287 10.6353 14.105 10.5953 13.88 10.6H13.4C12.66 10.6 12 11.38 11.82 12.14C11.08 14.8 11.52 16.26 12.26 18.68V18.7C11.76 20.46 11.12 22.5 10.1 24.56L8.18 28.16L6.4 29.14C4 30.64 2.86 32.32 2.64 33.38C2.56 33.76 2.6 34.1 2.74 34.46L2.8 34.56L3.76 35.18L4.64 35.4C6.26 35.4 8.1 33.5 10.58 29.26L10.94 29.12C13 28.46 15.56 28 19 27.62C21.06 28.64 23.48 29.1 25 29.1C25.88 29.1 26.48 28.88 26.82 28.5ZM26 27.08L26.18 27.3C26.16 27.5 26.1 27.52 26 27.56H25.92L25.54 27.6C24.62 27.6 23.2 27.22 21.74 26.58C21.92 26.38 22 26.38 22.2 26.38C25 26.38 25.8 26.88 26 27.08ZM7.66 30C6.36 32.38 5.18 33.7 4.28 34C4.38 33.24 5.28 31.92 6.7 30.62L7.66 30ZM13.7 16.18C13.24 14.38 13.22 12.92 13.56 12.08L13.7 11.84L14 11.94C14.34 12.42 14.38 13.06 14.18 14.14L14.12 14.46L13.8 16.1L13.7 16.18Z" fill="#EF5350"/>
</svg>
