<svg width="30" height="40" viewBox="0 0 30 40" fill="none" xmlns="http://www.w3.org/2000/svg">
<path d="M5 0C2.24219 0 0 2.24219 0 5V35C0 37.7578 2.24219 40 5 40H25C27.7578 40 30 37.7578 30 35V12.5H20C18.6172 12.5 17.5 11.3828 17.5 10V0H5ZM20 0V10H30L20 0ZM8.67188 20.0859L10.7656 27.0547L13.2344 20C13.5 19.25 14.2109 18.7422 15.0078 18.7422C15.8047 18.7422 16.5156 19.2422 16.7812 20L19.25 27.0547L21.3281 20.0859C21.625 19.0938 22.6719 18.5312 23.6641 18.8281C24.6562 19.125 25.2188 20.1719 24.9219 21.1641L21.1719 33.6641C20.9375 34.4453 20.2344 34.9844 19.4219 35C18.6094 35.0156 17.875 34.5156 17.6094 33.7422L15 26.2969L12.3984 33.7422C12.1328 34.5078 11.3984 35.0156 10.5859 35C9.77344 34.9844 9.0625 34.4453 8.83594 33.6641L5.08594 21.1641C4.78906 20.1719 5.35156 19.125 6.34375 18.8281C7.33594 18.5312 8.38281 19.0938 8.67969 20.0859H8.67188Z" fill="#1167B1"/>
</svg>
